#N canvas 0 0 1522 762 10;
#X obj 400 360 hsl 128 15 0 1 0 0 delgain empty Delay\ Gain -2 -8 0
10 #fcfcfc #000000 #000000 0 1;
#X obj 400 420 hsl 128 15 0 5000 0 0 deltime empty Delay\ Time -2 -8
0 10 #fcfcfc #000000 #000000 0 1;
#X obj 400 390 hsl 128 15 0 1 0 0 delvolume empty Delay\ Volume -2
-8 0 10 #fcfcfc #000000 #000000 0 1;
#X obj 400 450 hsl 128 15 0 1 0 0 delfeedback empty Delay\ Feedback
-2 -8 0 10 #fcfcfc #000000 #000000 0 1;
#X obj 400 480 hsl 128 15 0 1 0 0 revgain empty Reverb\ Gain -2 -8
0 10 #fcfcfc #000000 #000000 0 1;
#X obj 400 510 hsl 128 15 0 1 0 0 revout empty Reverb\ out -2 -8 0
10 #fcfcfc #000000 #000000 0 1;
#X obj 560 110 hsl 128 15 0 3000 0 0 decayslid empty Decay -2 -8 0
10 #fcfcfc #000000 #000000 0 1;
#X obj 560 140 hsl 128 15 0 127 0 0 moddecay empty Mod\ Decay -2 -8
0 10 #fcfcfc #000000 #000000 8300 1;
#X obj 560 170 hsl 128 15 0 10 0 0 modind empty Mod\ Index -2 -8 0
10 #fcfcfc #000000 #000000 1200 1;
#X obj 560 210 hsl 128 15 0 10 0 0 harmony empty Harmony -2 -8 0 10
#fcfcfc #000000 #000000 400 1;
#X obj 400 100 hsl 128 15 0 1 0 0 dryout empty Peak\ Dry\ 1 -2 -8 0
10 #fcfcfc #000000 #000000 800 1;
#X obj 690 300 hsl 212 34 0 1 0 0 mastout empty Master -2 -8 0 10 #fcfcfc
#000000 #000000 0 1;
#N canvas -8 -8 1538 803 sonification 0;
#X obj 150 460 dac~;
#X obj 150 430 *~;
#X obj 80 290 r~ dryout;
#X obj 170 380 r~ delout;
#X obj 170 400 r~ revout1;
#X floatatom 200 440 5 0 0 0 - mastout -, f 5;
#X obj 60 30 adc~ 1;
#X obj 60 50 sigmund~ -npeaks 16 peaks;
#X obj 60 70 send peaks;
#N canvas 0 0 1522 762 peaks 0;
#X floatatom 210 160 5 0 0 0 - - -, f 5;
#X floatatom 110 160 5 0 0 0 - - -, f 5;
#X obj 270 200 line~;
#X floatatom 260 160 5 0 0 0 - - -, f 5;
#X obj 210 180 pack 0 10;
#X obj 170 270 *~;
#X obj 210 290 line~;
#X floatatom 210 240 5 0 0 0 - peaks1 -, f 5;
#X obj 210 270 pack 0 10;
#X obj 110 240 osc~ 440;
#X obj 170 250 *~;
#X floatatom 450 160 5 0 0 0 - - -, f 5;
#X floatatom 350 160 5 0 0 0 - - -, f 5;
#X obj 450 200 line~;
#X floatatom 500 160 5 0 0 0 - - -, f 5;
#X obj 450 180 pack 0 10;
#X obj 390 290 *~;
#X obj 450 290 line~;
#X floatatom 450 250 5 0 0 0 - peaks2 -, f 5;
#X obj 450 270 pack 0 10;
#X obj 350 220 osc~ 440;
#X obj 390 250 *~;
#X floatatom 640 200 5 0 0 0 - - -, f 5;
#X floatatom 550 150 5 0 0 0 - - -, f 5;
#X obj 640 240 line~;
#X floatatom 690 200 5 0 0 0 - - -, f 5;
#X obj 640 220 pack 0 10;
#X obj 590 270 *~;
#X obj 640 310 line~;
#X floatatom 640 270 5 0 0 0 - peaks3 -, f 5;
#X obj 640 290 pack 0 10;
#X obj 550 210 osc~ 440;
#X obj 590 240 *~;
#X floatatom 860 170 5 0 0 0 - - -, f 5;
#X floatatom 770 140 5 0 0 0 - - -, f 5;
#X obj 860 210 line~;
#X floatatom 910 170 5 0 0 0 - - -, f 5;
#X obj 860 190 pack 0 10;
#X obj 770 290 *~;
#X obj 860 290 line~;
#X floatatom 860 250 5 0 0 0 - peaks4 -, f 5;
#X obj 860 270 pack 0 10;
#X obj 770 230 osc~ 440;
#X obj 770 260 *~;
#X obj 110 80 receive peaks;
#X obj 350 80 receive peaks;
#X obj 550 80 receive peaks;
#X obj 770 80 receive peaks;
#X obj 110 130 unpack f f;
#X obj 350 120 unpack f f;
#X obj 550 130 unpack f f;
#X obj 770 120 unpack f f;
#X obj 110 220 line~;
#X floatatom 150 160 5 0 0 0 - - -, f 5;
#X obj 110 200 pack 0 10;
#X obj 350 200 line~;
#X floatatom 400 160 5 0 0 0 - - -, f 5;
#X obj 350 180 pack 0 10;
#X obj 550 190 line~;
#X floatatom 600 150 5 0 0 0 - - -, f 5;
#X obj 550 170 pack 0 10;
#X obj 770 180 line~;
#X floatatom 810 140 5 0 0 0 - - -, f 5;
#X obj 770 160 pack 0 10;
#X obj 40 250 s freq1;
#X obj 323 248 s freq2;
#X obj 530 280 s freq3;
#X obj 690 150 s freq4;
#X obj 170 330 dac~;
#X obj 410 350 dac~;
#X obj 660 360 dac~;
#X obj 820 380 dac~;
#X obj 770 100 route 12;
#X obj 550 100 route 8;
#X obj 350 100 route 4;
#X obj 110 105 route 2;
#X connect 0 0 4 0;
#X connect 1 0 64 0;
#X connect 1 0 54 0;
#X connect 2 0 10 1;
#X connect 3 0 4 1;
#X connect 4 0 2 0;
#X connect 5 0 68 0;
#X connect 5 0 68 1;
#X connect 6 0 5 1;
#X connect 7 0 8 0;
#X connect 8 0 6 0;
#X connect 9 0 10 0;
#X connect 10 0 5 0;
#X connect 11 0 15 0;
#X connect 12 0 57 0;
#X connect 12 0 65 0;
#X connect 13 0 21 1;
#X connect 14 0 15 1;
#X connect 15 0 13 0;
#X connect 16 0 69 0;
#X connect 16 0 69 1;
#X connect 17 0 16 1;
#X connect 18 0 19 0;
#X connect 19 0 17 0;
#X connect 20 0 21 0;
#X connect 21 0 16 0;
#X connect 22 0 26 0;
#X connect 23 0 60 0;
#X connect 23 0 66 0;
#X connect 24 0 32 1;
#X connect 25 0 26 1;
#X connect 26 0 24 0;
#X connect 27 0 70 0;
#X connect 27 0 70 1;
#X connect 28 0 27 1;
#X connect 29 0 30 0;
#X connect 30 0 28 0;
#X connect 31 0 32 0;
#X connect 32 0 27 0;
#X connect 33 0 37 0;
#X connect 34 0 63 0;
#X connect 34 0 67 0;
#X connect 35 0 43 1;
#X connect 36 0 37 1;
#X connect 37 0 35 0;
#X connect 38 0 71 0;
#X connect 38 0 71 1;
#X connect 39 0 38 1;
#X connect 40 0 41 0;
#X connect 41 0 39 0;
#X connect 42 0 43 0;
#X connect 43 0 38 0;
#X connect 44 0 75 0;
#X connect 45 0 74 0;
#X connect 46 0 73 0;
#X connect 47 0 72 0;
#X connect 48 0 1 0;
#X connect 48 1 0 0;
#X connect 49 0 12 0;
#X connect 49 1 11 0;
#X connect 50 0 23 0;
#X connect 50 1 22 0;
#X connect 51 0 34 0;
#X connect 51 1 33 0;
#X connect 52 0 9 0;
#X connect 53 0 54 1;
#X connect 54 0 52 0;
#X connect 55 0 20 0;
#X connect 56 0 57 1;
#X connect 57 0 55 0;
#X connect 58 0 31 0;
#X connect 59 0 60 1;
#X connect 60 0 58 0;
#X connect 61 0 42 0;
#X connect 62 0 63 1;
#X connect 63 0 61 0;
#X connect 72 0 51 0;
#X connect 73 0 50 0;
#X connect 74 0 49 0;
#X connect 75 0 48 0;
#X restore 60 100 pd peaks;
#X obj 80 310 r~ dryout2;
#X obj 80 330 r~ dryout3;
#X obj 80 350 r~ dryout4;
#X obj 120 250 r~ notesout;
#N canvas -8 -8 1538 803 patch 0;
#X floatatom 47 138 5 0 0 0 - - -, f 5;
#X floatatom 160 116 5 0 10 0 Harmony harmony -, f 5;
#X floatatom 160 136 5 0 10 0 - modind -, f 5;
#X floatatom 220 136 5 0 0 0 mod moddecay -, f 5;
#X floatatom 220 156 5 0 0 0 Decay decayslid -, f 5;
#N canvas 0 412 754 375 FM 0;
#N canvas 291 193 645 473 FM_synth 0;
#X obj 66 363 osc~;
#X obj 266 245 osc~ 40;
#X text 118 83 freq;
#X obj 74 312 +~;
#X text 475 173 modulation index;
#X text 298 77 harmonicity;
#X obj 253 141 *~;
#X obj 404 228 *~;
#X obj 266 282 *~;
#X obj 66 384 outlet~;
#X obj 74 80 inlet~;
#X obj 296 101 inlet~;
#X obj 429 171 inlet~;
#X connect 0 0 9 0;
#X connect 1 0 8 0;
#X connect 3 0 0 0;
#X connect 6 0 1 0;
#X connect 6 0 7 0;
#X connect 7 0 8 1;
#X connect 8 0 3 1;
#X connect 10 0 6 0;
#X connect 10 0 3 0;
#X connect 11 0 6 1;
#X connect 12 0 7 1;
#X restore 97 336 pd FM_synth;
#N canvas 638 359 408 265 env 0;
#X obj 41 19 inlet;
#X obj 41 127 line~;
#X obj 41 169 *~;
#X obj 41 190 outlet~;
#X obj 41 148 *~;
#X obj 41 40 bng 15 250 50 0 empty empty empty 17 7 0 10 #fcfcfc #000000
#000000;
#X obj 114 78 del 10;
#X obj 41 76 pack 1 3;
#X obj 112 98 pack 0 500;
#X obj 201 53 inlet;
#X floatatom 201 74 5 0 0 0 - - -, f 5;
#X text 238 74 decay time;
#X text 72 168 square the output;
#X text 67 151 square the output - steeper decay curve;
#X connect 0 0 5 0;
#X connect 1 0 4 0;
#X connect 1 0 4 1;
#X connect 2 0 3 0;
#X connect 4 0 2 0;
#X connect 4 0 2 1;
#X connect 5 0 6 0;
#X connect 5 0 7 0;
#X connect 6 0 8 0;
#X connect 7 0 1 0;
#X connect 8 0 1 0;
#X connect 9 0 10 0;
#X connect 10 0 8 1;
#X restore 231 239 pd env;
#X obj 96 180 t f b;
#N canvas 638 359 408 265 env 0;
#X obj 41 19 inlet;
#X obj 41 127 line~;
#X obj 41 169 *~;
#X obj 41 190 outlet~;
#X obj 41 148 *~;
#X obj 41 40 bng 15 250 50 0 empty empty empty 17 7 0 10 #fcfcfc #000000
#000000;
#X obj 114 78 del 10;
#X obj 41 76 pack 1 3;
#X obj 112 98 pack 0 500;
#X obj 201 53 inlet;
#X floatatom 201 74 5 0 0 0 - - -, f 5;
#X text 238 74 decay time;
#X text 72 168 square the output;
#X text 67 151 square the output - steeper decay curve;
#X connect 0 0 5 0;
#X connect 1 0 4 0;
#X connect 1 0 4 1;
#X connect 2 0 3 0;
#X connect 4 0 2 0;
#X connect 4 0 2 1;
#X connect 5 0 6 0;
#X connect 5 0 7 0;
#X connect 6 0 8 0;
#X connect 7 0 1 0;
#X connect 8 0 1 0;
#X connect 9 0 10 0;
#X connect 10 0 8 1;
#X restore 327 360 pd env;
#X obj 101 421 *~;
#X obj 222 295 *~;
#X obj 101 88 inlet;
#X obj 255 268 inlet;
#X obj 131 286 inlet;
#X obj 322 214 inlet;
#X obj 381 313 inlet;
#X obj 101 442 outlet~;
#X connect 0 0 4 0;
#X connect 1 0 5 0;
#X connect 2 0 0 0;
#X connect 2 1 1 0;
#X connect 2 1 3 0;
#X connect 3 0 4 1;
#X connect 4 0 11 0;
#X connect 5 0 0 2;
#X connect 6 0 2 0;
#X connect 7 0 5 1;
#X connect 8 0 0 1;
#X connect 9 0 1 1;
#X connect 10 0 3 1;
#X restore 100 166 pd FM;
#X obj 90 286 *~;
#X floatatom 100 266 5 0 0 0 - dryout -, f 5;
#X obj 90 306 s~ dryout;
#X floatatom 377 138 5 0 0 0 - - -, f 5;
#X floatatom 530 146 5 0 10 0 Harmony harmony -, f 5;
#X floatatom 540 186 5 0 10 0 - modind -, f 5;
#X floatatom 587 218 5 0 0 0 mod moddecay -, f 5;
#X floatatom 650 246 5 0 0 0 Decay decayslid -, f 5;
#N canvas 0 412 754 375 FM 0;
#N canvas 291 193 645 473 FM_synth 0;
#X obj 66 363 osc~;
#X obj 266 245 osc~ 40;
#X text 118 83 freq;
#X obj 74 312 +~;
#X text 475 173 modulation index;
#X text 298 77 harmonicity;
#X obj 253 141 *~;
#X obj 404 228 *~;
#X obj 266 282 *~;
#X obj 66 384 outlet~;
#X obj 74 80 inlet~;
#X obj 296 101 inlet~;
#X obj 429 171 inlet~;
#X connect 0 0 9 0;
#X connect 1 0 8 0;
#X connect 3 0 0 0;
#X connect 6 0 1 0;
#X connect 6 0 7 0;
#X connect 7 0 8 1;
#X connect 8 0 3 1;
#X connect 10 0 6 0;
#X connect 10 0 3 0;
#X connect 11 0 6 1;
#X connect 12 0 7 1;
#X restore 97 336 pd FM_synth;
#N canvas 638 359 408 265 env 0;
#X obj 41 19 inlet;
#X obj 41 127 line~;
#X obj 41 169 *~;
#X obj 41 190 outlet~;
#X obj 41 148 *~;
#X obj 41 40 bng 15 250 50 0 empty empty empty 17 7 0 10 #fcfcfc #000000
#000000;
#X obj 114 78 del 10;
#X obj 41 76 pack 1 3;
#X obj 112 98 pack 0 500;
#X obj 201 53 inlet;
#X floatatom 201 74 5 0 0 0 - - -, f 5;
#X text 238 74 decay time;
#X text 72 168 square the output;
#X text 67 151 square the output - steeper decay curve;
#X connect 0 0 5 0;
#X connect 1 0 4 0;
#X connect 1 0 4 1;
#X connect 2 0 3 0;
#X connect 4 0 2 0;
#X connect 4 0 2 1;
#X connect 5 0 6 0;
#X connect 5 0 7 0;
#X connect 6 0 8 0;
#X connect 7 0 1 0;
#X connect 8 0 1 0;
#X connect 9 0 10 0;
#X connect 10 0 8 1;
#X restore 231 239 pd env;
#X obj 96 180 t f b;
#N canvas 638 359 408 265 env 0;
#X obj 41 19 inlet;
#X obj 41 127 line~;
#X obj 41 169 *~;
#X obj 41 190 outlet~;
#X obj 41 148 *~;
#X obj 41 40 bng 15 250 50 0 empty empty empty 17 7 0 10 #fcfcfc #000000
#000000;
#X obj 114 78 del 10;
#X obj 41 76 pack 1 3;
#X obj 112 98 pack 0 500;
#X obj 201 53 inlet;
#X floatatom 201 74 5 0 0 0 - - -, f 5;
#X text 238 74 decay time;
#X text 72 168 square the output;
#X text 67 151 square the output - steeper decay curve;
#X connect 0 0 5 0;
#X connect 1 0 4 0;
#X connect 1 0 4 1;
#X connect 2 0 3 0;
#X connect 4 0 2 0;
#X connect 4 0 2 1;
#X connect 5 0 6 0;
#X connect 5 0 7 0;
#X connect 6 0 8 0;
#X connect 7 0 1 0;
#X connect 8 0 1 0;
#X connect 9 0 10 0;
#X connect 10 0 8 1;
#X restore 327 360 pd env;
#X obj 101 421 *~;
#X obj 222 295 *~;
#X obj 101 88 inlet;
#X obj 255 268 inlet;
#X obj 131 286 inlet;
#X obj 322 214 inlet;
#X obj 381 313 inlet;
#X obj 101 442 outlet~;
#X connect 0 0 4 0;
#X connect 1 0 5 0;
#X connect 2 0 0 0;
#X connect 2 1 1 0;
#X connect 2 1 3 0;
#X connect 3 0 4 1;
#X connect 4 0 11 0;
#X connect 5 0 0 2;
#X connect 6 0 2 0;
#X connect 7 0 5 1;
#X connect 8 0 0 1;
#X connect 9 0 1 1;
#X connect 10 0 3 1;
#X restore 430 166 pd FM;
#X obj 429 279 *~;
#X floatatom 440 246 5 0 0 0 - dryout2 -, f 5;
#X obj 427 88 r freq2;
#X obj 40 106 r freq1;
#X floatatom 674 130 5 0 0 0 - - -, f 5;
#X floatatom 827 138 5 0 10 0 Harmony harmony -, f 5;
#X floatatom 837 178 5 0 10 0 - modind -, f 5;
#X floatatom 884 210 5 0 0 0 mod moddecay -, f 5;
#X floatatom 947 238 5 0 0 0 Decay decayslid -, f 5;
#N canvas 0 412 754 375 FM 0;
#N canvas 291 193 645 473 FM_synth 0;
#X obj 66 363 osc~;
#X obj 266 245 osc~ 40;
#X text 118 83 freq;
#X obj 74 312 +~;
#X text 475 173 modulation index;
#X text 298 77 harmonicity;
#X obj 253 141 *~;
#X obj 404 228 *~;
#X obj 266 282 *~;
#X obj 66 384 outlet~;
#X obj 74 80 inlet~;
#X obj 296 101 inlet~;
#X obj 429 171 inlet~;
#X connect 0 0 9 0;
#X connect 1 0 8 0;
#X connect 3 0 0 0;
#X connect 6 0 1 0;
#X connect 6 0 7 0;
#X connect 7 0 8 1;
#X connect 8 0 3 1;
#X connect 10 0 6 0;
#X connect 10 0 3 0;
#X connect 11 0 6 1;
#X connect 12 0 7 1;
#X restore 97 336 pd FM_synth;
#N canvas 638 359 408 265 env 0;
#X obj 41 19 inlet;
#X obj 41 127 line~;
#X obj 41 169 *~;
#X obj 41 190 outlet~;
#X obj 41 148 *~;
#X obj 41 40 bng 15 250 50 0 empty empty empty 17 7 0 10 #fcfcfc #000000
#000000;
#X obj 114 78 del 10;
#X obj 41 76 pack 1 3;
#X obj 112 98 pack 0 500;
#X obj 201 53 inlet;
#X floatatom 201 74 5 0 0 0 - - -, f 5;
#X text 238 74 decay time;
#X text 72 168 square the output;
#X text 67 151 square the output - steeper decay curve;
#X connect 0 0 5 0;
#X connect 1 0 4 0;
#X connect 1 0 4 1;
#X connect 2 0 3 0;
#X connect 4 0 2 0;
#X connect 4 0 2 1;
#X connect 5 0 6 0;
#X connect 5 0 7 0;
#X connect 6 0 8 0;
#X connect 7 0 1 0;
#X connect 8 0 1 0;
#X connect 9 0 10 0;
#X connect 10 0 8 1;
#X restore 231 239 pd env;
#X obj 96 180 t f b;
#N canvas 638 359 408 265 env 0;
#X obj 41 19 inlet;
#X obj 41 127 line~;
#X obj 41 169 *~;
#X obj 41 190 outlet~;
#X obj 41 148 *~;
#X obj 41 40 bng 15 250 50 0 empty empty empty 17 7 0 10 #fcfcfc #000000
#000000;
#X obj 114 78 del 10;
#X obj 41 76 pack 1 3;
#X obj 112 98 pack 0 500;
#X obj 201 53 inlet;
#X floatatom 201 74 5 0 0 0 - - -, f 5;
#X text 238 74 decay time;
#X text 72 168 square the output;
#X text 67 151 square the output - steeper decay curve;
#X connect 0 0 5 0;
#X connect 1 0 4 0;
#X connect 1 0 4 1;
#X connect 2 0 3 0;
#X connect 4 0 2 0;
#X connect 4 0 2 1;
#X connect 5 0 6 0;
#X connect 5 0 7 0;
#X connect 6 0 8 0;
#X connect 7 0 1 0;
#X connect 8 0 1 0;
#X connect 9 0 10 0;
#X connect 10 0 8 1;
#X restore 327 360 pd env;
#X obj 101 421 *~;
#X obj 222 295 *~;
#X obj 101 88 inlet;
#X obj 255 268 inlet;
#X obj 131 286 inlet;
#X obj 322 214 inlet;
#X obj 381 313 inlet;
#X obj 101 442 outlet~;
#X connect 0 0 4 0;
#X connect 1 0 5 0;
#X connect 2 0 0 0;
#X connect 2 1 1 0;
#X connect 2 1 3 0;
#X connect 3 0 4 1;
#X connect 4 0 11 0;
#X connect 5 0 0 2;
#X connect 6 0 2 0;
#X connect 7 0 5 1;
#X connect 8 0 0 1;
#X connect 9 0 1 1;
#X connect 10 0 3 1;
#X restore 727 158 pd FM;
#X obj 726 271 *~;
#X floatatom 737 238 5 0 0 0 - dryout3 -, f 5;
#X floatatom 60 386 5 0 0 0 - - -, f 5;
#X floatatom 213 394 5 0 10 0 Harmony harmony -, f 5;
#X floatatom 223 433 5 0 10 0 - modind -, f 5;
#X floatatom 270 466 5 0 0 0 mod moddecay -, f 5;
#X floatatom 270 506 5 0 0 0 Decay decayslid -, f 5;
#N canvas 0 412 754 375 FM 0;
#N canvas 291 193 645 473 FM_synth 0;
#X obj 66 363 osc~;
#X obj 266 245 osc~ 40;
#X text 118 83 freq;
#X obj 74 312 +~;
#X text 475 173 modulation index;
#X text 298 77 harmonicity;
#X obj 253 141 *~;
#X obj 404 228 *~;
#X obj 266 282 *~;
#X obj 66 384 outlet~;
#X obj 74 80 inlet~;
#X obj 296 101 inlet~;
#X obj 429 171 inlet~;
#X connect 0 0 9 0;
#X connect 1 0 8 0;
#X connect 3 0 0 0;
#X connect 6 0 1 0;
#X connect 6 0 7 0;
#X connect 7 0 8 1;
#X connect 8 0 3 1;
#X connect 10 0 6 0;
#X connect 10 0 3 0;
#X connect 11 0 6 1;
#X connect 12 0 7 1;
#X restore 97 336 pd FM_synth;
#N canvas 638 359 408 265 env 0;
#X obj 41 19 inlet;
#X obj 41 127 line~;
#X obj 41 169 *~;
#X obj 41 190 outlet~;
#X obj 41 148 *~;
#X obj 41 40 bng 15 250 50 0 empty empty empty 17 7 0 10 #fcfcfc #000000
#000000;
#X obj 114 78 del 10;
#X obj 41 76 pack 1 3;
#X obj 112 98 pack 0 500;
#X obj 201 53 inlet;
#X floatatom 201 74 5 0 0 0 - - -, f 5;
#X text 238 74 decay time;
#X text 72 168 square the output;
#X text 67 151 square the output - steeper decay curve;
#X connect 0 0 5 0;
#X connect 1 0 4 0;
#X connect 1 0 4 1;
#X connect 2 0 3 0;
#X connect 4 0 2 0;
#X connect 4 0 2 1;
#X connect 5 0 6 0;
#X connect 5 0 7 0;
#X connect 6 0 8 0;
#X connect 7 0 1 0;
#X connect 8 0 1 0;
#X connect 9 0 10 0;
#X connect 10 0 8 1;
#X restore 231 239 pd env;
#X obj 96 180 t f b;
#N canvas 638 359 408 265 env 0;
#X obj 41 19 inlet;
#X obj 41 127 line~;
#X obj 41 169 *~;
#X obj 41 190 outlet~;
#X obj 41 148 *~;
#X obj 41 40 bng 15 250 50 0 empty empty empty 17 7 0 10 #fcfcfc #000000
#000000;
#X obj 114 78 del 10;
#X obj 41 76 pack 1 3;
#X obj 112 98 pack 0 500;
#X obj 201 53 inlet;
#X floatatom 201 74 5 0 0 0 - - -, f 5;
#X text 238 74 decay time;
#X text 72 168 square the output;
#X text 67 151 square the output - steeper decay curve;
#X connect 0 0 5 0;
#X connect 1 0 4 0;
#X connect 1 0 4 1;
#X connect 2 0 3 0;
#X connect 4 0 2 0;
#X connect 4 0 2 1;
#X connect 5 0 6 0;
#X connect 5 0 7 0;
#X connect 6 0 8 0;
#X connect 7 0 1 0;
#X connect 8 0 1 0;
#X connect 9 0 10 0;
#X connect 10 0 8 1;
#X restore 327 360 pd env;
#X obj 101 421 *~;
#X obj 222 295 *~;
#X obj 101 88 inlet;
#X obj 255 268 inlet;
#X obj 131 286 inlet;
#X obj 322 214 inlet;
#X obj 381 313 inlet;
#X obj 101 442 outlet~;
#X connect 0 0 4 0;
#X connect 1 0 5 0;
#X connect 2 0 0 0;
#X connect 2 1 1 0;
#X connect 2 1 3 0;
#X connect 3 0 4 1;
#X connect 4 0 11 0;
#X connect 5 0 0 2;
#X connect 6 0 2 0;
#X connect 7 0 5 1;
#X connect 8 0 0 1;
#X connect 9 0 1 1;
#X connect 10 0 3 1;
#X restore 113 414 pd FM;
#X obj 112 527 *~;
#X floatatom 123 494 5 0 0 0 - dryout4 -, f 5;
#X obj 430 316 s~ dryout2;
#X obj 727 308 s~ dryout3;
#X obj 113 564 s~ dryout4;
#X obj 724 80 r freq3;
#X obj 63 364 r freq4;
#X obj 440 216 send~ pdFM2;
#X text 530 126 comment;
#X connect 0 0 5 0;
#X connect 1 0 5 1;
#X connect 2 0 5 2;
#X connect 3 0 5 3;
#X connect 4 0 5 4;
#X connect 5 0 6 0;
#X connect 6 0 8 0;
#X connect 7 0 6 1;
#X connect 9 0 14 0;
#X connect 10 0 14 1;
#X connect 11 0 14 2;
#X connect 12 0 14 3;
#X connect 13 0 14 4;
#X connect 14 0 15 0;
#X connect 15 0 35 0;
#X connect 16 0 15 1;
#X connect 17 0 9 0;
#X connect 18 0 0 0;
#X connect 19 0 24 0;
#X connect 20 0 24 1;
#X connect 21 0 24 2;
#X connect 22 0 24 3;
#X connect 23 0 24 4;
#X connect 24 0 25 0;
#X connect 25 0 36 0;
#X connect 26 0 25 1;
#X connect 27 0 32 0;
#X connect 28 0 32 1;
#X connect 29 0 32 2;
#X connect 30 0 32 3;
#X connect 31 0 32 4;
#X connect 32 0 33 0;
#X connect 33 0 37 0;
#X connect 34 0 33 1;
#X connect 38 0 19 0;
#X connect 39 0 27 0;
#X restore 60 140 pd patch 2;
#N canvas -8 -8 1538 803 music 0;
#X obj 50 165 tgl 15 0 empty empty empty 17 7 0 10 #fcfcfc #000000
#000000 0 1;
#X obj 123 323 s notes;
#X floatatom 130 285 5 0 0 0 - - -, f 5;
#X obj 170 235 r notes;
#N canvas 0 22 450 300 notes 0;
#X obj 74 -128 inlet;
#X obj 79 109 outlet;
#X obj 74 -69 f 0;
#X obj 73 -27 % 8;
#X floatatom 74 47 5 0 0 0 - - -, f 5;
#X obj 74 -48 + 1;
#X floatatom 74 -6 5 0 0 0 - - -, f 5;
#X obj 222 -85 loadbang;
#X obj 74 67 - 24;
#X obj 74 23 tabread notestwo;
#X msg 220 -60 \; notestwo 0 73 70 65 58;
#X obj 334 42 table notestwo;
#X obj 70 -110 metro 300;
#X connect 0 0 12 0;
#X connect 2 0 5 0;
#X connect 3 0 2 1;
#X connect 3 0 6 0;
#X connect 4 0 8 0;
#X connect 5 0 3 0;
#X connect 6 0 9 0;
#X connect 7 0 10 0;
#X connect 8 0 1 0;
#X connect 9 0 4 0;
#X connect 12 0 2 0;
#X restore 40 225 pd notes two;
#X obj 140 175 tgl 15 0 empty empty empty 17 7 0 10 #fcfcfc #000000
#000000 0 1;
#X obj 200 155 tgl 15 0 empty empty empty 17 7 0 10 #fcfcfc #000000
#000000 0 1;
#N canvas 414 25 450 300 notes 0;
#X obj 74 -128 inlet;
#X obj 79 109 outlet;
#X obj 74 -69 f 0;
#X obj 73 -27 % 8;
#X floatatom 74 47 5 0 0 0 - - -, f 5;
#X obj 74 -48 + 1;
#X floatatom 74 -6 5 0 0 0 - - -, f 5;
#X obj 222 -85 loadbang;
#X obj 74 67 - 24;
#X msg 220 -60 \; notesthree 0 75 72 63 56;
#X obj 231 20 table notesthree;
#X obj 74 23 tabread notesthree;
#X obj 70 -110 metro 600;
#X connect 0 0 12 0;
#X connect 2 0 5 0;
#X connect 3 0 2 1;
#X connect 3 0 6 0;
#X connect 4 0 8 0;
#X connect 5 0 3 0;
#X connect 6 0 11 0;
#X connect 7 0 9 0;
#X connect 8 0 1 0;
#X connect 11 0 4 0;
#X connect 12 0 2 0;
#X restore 40 255 pd notes three;
#N canvas 258 182 450 300 notes 0;
#X obj 37 37 inlet;
#X obj 42 274 outlet;
#X obj 37 96 f 0;
#X obj 36 138 % 8;
#X floatatom 37 212 5 0 0 0 - - -, f 5;
#X obj 37 117 + 1;
#X floatatom 37 159 5 0 0 0 - - -, f 5;
#X obj 185 80 loadbang;
#X obj 37 232 - 24;
#X obj 37 188 tabread notes;
#X msg 183 105 \; notes 0 75 70 67 51;
#X obj 185 179 table notes;
#X obj 40 60 metro 310;
#X connect 0 0 12 0;
#X connect 2 0 5 0;
#X connect 3 0 2 1;
#X connect 3 0 6 0;
#X connect 4 0 8 0;
#X connect 5 0 3 0;
#X connect 6 0 9 0;
#X connect 7 0 10 0;
#X connect 8 0 1 0;
#X connect 9 0 4 0;
#X connect 12 0 2 0;
#X restore 40 195 pd notes one;
#X obj 140 100 notein;
#X obj 140 125 sel 36;
#X obj 50 80 notein;
#X obj 50 105 sel 39;
#X obj 200 80 notein;
#X obj 200 105 sel 43;
#X obj 50 135 bng 15 250 50 0 empty empty empty 17 7 0 10 #fcfcfc #000000
#000000;
#X obj 138 150 bng 15 250 50 0 empty empty empty 17 7 0 10 #fcfcfc
#000000 #000000;
#X obj 200 130 bng 15 250 50 0 empty empty empty 17 7 0 10 #fcfcfc
#000000 #000000;
#X floatatom 250 175 5 0 0 0 - - -, f 5;
#X floatatom 400 185 5 0 10 0 Harmony harmonyn -, f 5;
#X floatatom 410 225 5 0 10 0 - modindn -, f 5;
#X floatatom 460 255 5 0 0 0 mod moddecayn -, f 5;
#X floatatom 523 283 5 0 0 0 Decay decayslidn -, f 5;
#N canvas 0 412 754 375 FM 0;
#N canvas 291 193 645 473 FM_synth 0;
#X obj 66 363 osc~;
#X obj 266 245 osc~ 40;
#X text 118 83 freq;
#X obj 74 312 +~;
#X text 475 173 modulation index;
#X text 298 77 harmonicity;
#X obj 253 141 *~;
#X obj 404 228 *~;
#X obj 266 282 *~;
#X obj 66 384 outlet~;
#X obj 74 80 inlet~;
#X obj 296 101 inlet~;
#X obj 429 171 inlet~;
#X connect 0 0 9 0;
#X connect 1 0 8 0;
#X connect 3 0 0 0;
#X connect 6 0 1 0;
#X connect 6 0 7 0;
#X connect 7 0 8 1;
#X connect 8 0 3 1;
#X connect 10 0 6 0;
#X connect 10 0 3 0;
#X connect 11 0 6 1;
#X connect 12 0 7 1;
#X restore 97 336 pd FM_synth;
#N canvas 638 359 408 265 env 0;
#X obj 41 19 inlet;
#X obj 41 127 line~;
#X obj 41 169 *~;
#X obj 41 190 outlet~;
#X obj 41 148 *~;
#X obj 41 40 bng 15 250 50 0 empty empty empty 17 7 0 10 #fcfcfc #000000
#000000;
#X obj 114 78 del 10;
#X obj 41 76 pack 1 3;
#X obj 112 98 pack 0 500;
#X obj 201 53 inlet;
#X floatatom 201 74 5 0 0 0 - - -, f 5;
#X text 238 74 decay time;
#X text 72 168 square the output;
#X text 67 151 square the output - steeper decay curve;
#X connect 0 0 5 0;
#X connect 1 0 4 0;
#X connect 1 0 4 1;
#X connect 2 0 3 0;
#X connect 4 0 2 0;
#X connect 4 0 2 1;
#X connect 5 0 6 0;
#X connect 5 0 7 0;
#X connect 6 0 8 0;
#X connect 7 0 1 0;
#X connect 8 0 1 0;
#X connect 9 0 10 0;
#X connect 10 0 8 1;
#X restore 231 239 pd env;
#X obj 96 180 t f b;
#N canvas 638 359 408 265 env 0;
#X obj 41 19 inlet;
#X obj 41 127 line~;
#X obj 41 169 *~;
#X obj 41 190 outlet~;
#X obj 41 148 *~;
#X obj 41 40 bng 15 250 50 0 empty empty empty 17 7 0 10 #fcfcfc #000000
#000000;
#X obj 114 78 del 10;
#X obj 41 76 pack 1 3;
#X obj 112 98 pack 0 500;
#X obj 201 53 inlet;
#X floatatom 201 74 5 0 0 0 - - -, f 5;
#X text 238 74 decay time;
#X text 72 168 square the output;
#X text 67 151 square the output - steeper decay curve;
#X connect 0 0 5 0;
#X connect 1 0 4 0;
#X connect 1 0 4 1;
#X connect 2 0 3 0;
#X connect 4 0 2 0;
#X connect 4 0 2 1;
#X connect 5 0 6 0;
#X connect 5 0 7 0;
#X connect 6 0 8 0;
#X connect 7 0 1 0;
#X connect 8 0 1 0;
#X connect 9 0 10 0;
#X connect 10 0 8 1;
#X restore 327 360 pd env;
#X obj 101 421 *~;
#X obj 222 295 *~;
#X obj 101 88 inlet;
#X obj 255 268 inlet;
#X obj 131 286 inlet;
#X obj 322 214 inlet;
#X obj 381 313 inlet;
#X obj 101 442 outlet~;
#X obj 90 140 mtof;
#X connect 0 0 4 0;
#X connect 1 0 5 0;
#X connect 2 0 0 0;
#X connect 2 1 1 0;
#X connect 2 1 3 0;
#X connect 3 0 4 1;
#X connect 4 0 11 0;
#X connect 5 0 0 2;
#X connect 6 0 12 0;
#X connect 7 0 5 1;
#X connect 8 0 0 1;
#X connect 9 0 1 1;
#X connect 10 0 3 1;
#X connect 12 0 2 0;
#X restore 300 205 pd FM;
#X obj 302 316 *~;
#X floatatom 313 283 5 0 0 0 - dryoutn -, f 5;
#X obj 253 153 r notes;
#X obj 303 353 s~ notesout;
#X connect 0 0 8 0;
#X connect 2 0 1 0;
#X connect 4 0 2 0;
#X connect 5 0 4 0;
#X connect 6 0 7 0;
#X connect 7 0 2 0;
#X connect 8 0 2 0;
#X connect 9 0 10 0;
#X connect 10 0 16 0;
#X connect 11 0 12 0;
#X connect 12 0 15 0;
#X connect 13 0 14 0;
#X connect 14 0 17 0;
#X connect 15 0 0 0;
#X connect 16 0 5 0;
#X connect 17 0 6 0;
#X connect 18 0 23 0;
#X connect 19 0 23 1;
#X connect 20 0 23 2;
#X connect 21 0 23 3;
#X connect 22 0 23 4;
#X connect 23 0 24 0;
#X connect 24 0 27 0;
#X connect 25 0 24 1;
#X connect 26 0 18 0;
#X restore 60 170 pd music notes;
#N canvas -8 -8 1538 803 fx 0;
#X obj 160 200 *~;
#X obj 200 290 delread~ buffer 0;
#X floatatom 200 270 5 0 0 0 - deltime -, f 5;
#X obj 200 310 *~;
#X obj 160 250 delwrite~ buffer 5000;
#X obj 170 310 *~;
#X obj 170 400 send~ delfeed;
#X obj 180 220 receive~ delfeed;
#X obj 470 360 *~;
#X obj 420 310 *~;
#X obj 420 360 *~;
#X obj 420 340 rev2~ 100 90 3000 20, f 26;
#X floatatom 530 310 5 0 0 0 size - -, f 5;
#X floatatom 280 320 5 0 0 0 vol delvolume -, f 5;
#X floatatom 160 290 5 0 0 0 Feedback delfeedback -, f 5;
#X obj 200 370 s~ delforrev;
#X obj 420 260 r~ delforrev;
#X floatatom 460 290 5 0 0 0 Gain revgain -, f 5;
#X floatatom 520 360 5 0 0 0 Out revout -, f 5;
#X floatatom 190 200 5 0 0 0 - delgain -, f 5;
#X obj 420 390 s~ revout1;
#X obj 210 340 s~ delout;
#X obj 440 91 ctlin 22 1;
#X floatatom 440 116 5 0 0 0 - - -, f 5;
#X obj 400 200 r~ dryout3;
#X obj 310 140 r~ notesout;
#X obj 350 170 r~ dryout4;
#X obj 410 230 r~ dryout2;
#X obj 330 270 r~ dryout;
#X obj 90 150 r~ dryout3;
#X obj 180 140 r~ dryout2;
#X obj 100 80 r~ notesout;
#X obj 40 120 r~ dryout2;
#X obj 160 170 r~ dryout;
#X connect 0 0 4 0;
#X connect 1 0 3 0;
#X connect 1 0 5 0;
#X connect 2 0 1 0;
#X connect 3 0 15 0;
#X connect 3 0 21 0;
#X connect 5 0 6 0;
#X connect 7 0 4 0;
#X connect 8 0 20 0;
#X connect 9 0 11 0;
#X connect 10 0 20 0;
#X connect 11 0 10 0;
#X connect 11 1 8 0;
#X connect 12 0 11 2;
#X connect 13 0 3 1;
#X connect 14 0 5 1;
#X connect 16 0 9 0;
#X connect 17 0 9 1;
#X connect 18 0 10 1;
#X connect 18 0 8 1;
#X connect 19 0 0 1;
#X connect 22 0 23 0;
#X connect 23 0 12 0;
#X connect 24 0 9 0;
#X connect 25 0 9 0;
#X connect 26 0 9 0;
#X connect 27 0 9 0;
#X connect 28 0 9 0;
#X connect 29 0 0 0;
#X connect 30 0 0 0;
#X connect 31 0 0 0;
#X connect 32 0 0 0;
#X connect 33 0 0 0;
#X restore 60 200 pd fx;
#X connect 1 0 0 0;
#X connect 1 0 0 1;
#X connect 2 0 1 0;
#X connect 3 0 1 0;
#X connect 4 0 1 0;
#X connect 5 0 1 1;
#X connect 6 0 7 0;
#X connect 7 0 8 0;
#X connect 10 0 1 0;
#X connect 11 0 1 0;
#X connect 12 0 1 0;
#X connect 13 0 1 0;
#X restore 1190 50 pd sonification;
#X obj 400 140 hsl 128 15 0 1 0 0 dryout2 empty Peak\ Dry\ 2 -2 -8
0 10 #fcfcfc #000000 #000000 0 1;
#X obj 400 180 hsl 128 15 0 1 0 0 dryout3 empty Peak\ Dry\ 3 -2 -8
0 10 #fcfcfc #000000 #000000 0 1;
#X obj 400 220 hsl 128 15 0 1 0 0 dryout4 empty Peak\ Dry\ 4 -2 -8
0 10 #fcfcfc #000000 #000000 0 1;
#X obj 110 400 hsl 128 15 0 2500 0 0 decayslidn empty Decay -2 -8 0
10 #fcfcfc #000000 #000000 10700 1;
#X obj 110 430 hsl 128 15 0 127 0 0 moddecayn empty Mod\ Decay -2 -8
0 10 #fcfcfc #000000 #000000 5300 1;
#X obj 110 460 hsl 128 15 0 10 0 0 modindn empty Mod\ Index -2 -8 0
10 #fcfcfc #000000 #000000 1600 1;
#X obj 110 500 hsl 128 15 0 10 0 0 harmonyn empty Harmony -2 -8 0 10
#fcfcfc #000000 #000000 4800 1;
#X obj 110 360 hsl 128 15 0 1 0 0 dryoutn empty Music\ notes -2 -8
0 10 #fcfcfc #000000 #000000 9200 1;
#X obj 110 100 hsl 128 15 0 10 0 0 peaks1 empty Peak\ 1 -2 -8 0 10
#fcfcfc #000000 #000000 0 1;
#X obj 110 140 hsl 128 15 0 10 0 0 peaks2 empty Peak\ 2 -2 -8 0 10
#fcfcfc #000000 #000000 0 1;
#X obj 110 180 hsl 128 15 0 10 0 0 peaks3 empty Peak\ 3 -2 -8 0 10
#fcfcfc #000000 #000000 0 1;
#X obj 110 220 hsl 128 15 0 10 0 0 peaks4 empty Peak\ 4 -2 -8 0 10
#fcfcfc #000000 #000000 0 1;
#X text 110 50 Patch 1;
#X text 410 40 Patch 2;
#X text 110 300 Music Patch;
#X text 400 300 FX;
